<svg xmlns="http://www.w3.org/2000/svg" width="64" height="64"><rect id="backgroundrect" width="100%" height="100%" x="0" y="0" fill="none" stroke="none" class="selected"/>
 <title>Tic Tac Toe</title>

 <metadata id="metadata7">image/svg+xmlTic Tac Toe2010-07-21mazeowww.openclipart.orgentic tac toetic-tac-toetick tack toetick-tack-toegamegamesA game of tic-tac-toe in progress.</metadata>
 <g class="currentLayer">
  <title>Layer 1</title>
  <path fill="#000000" fill-rule="nonzero" stroke="#000000" stroke-width="2" stroke-miterlimit="4" stroke-dashoffset="0" id="path3666" d="m35.104694,11.161316c-3.745693,-0.694368 -16.796932,3.032976 -14.63146,2.685302c3.489632,-2.757582 -8.717073,9.22066 -6.354376,14.71551c-1.657402,15.053522 14.30228,23.750284 27.104179,25.269571c3.250519,0.293041 12.036514,-3.859299 4.552967,-0.218243c8.041058,-10.160023 5.919575,-26.781155 -2.633755,-36.271605c-5.378586,-3.32588 -15.767635,-10.787502 -4.564316,-9.648385c12.621204,5.820886 19.66098,20.668349 16.303444,34.1296c-0.427242,14.974796 -21.150288,18.985233 -31.472523,10.861671c-13.402975,-4.417789 -18.267056,-21.579205 -10.777348,-33.029352c4.744314,-8.447283 21.285046,-12.820305 25.849361,-10.947108c-1.125397,0.817653 -2.250782,1.635401 -3.376175,2.453038z"/>
  
 </g>
</svg>